<svg width="103" height="21" viewBox="0 0 103 21" fill="none" xmlns="http://www.w3.org/2000/svg">
<g clip-path="url(#clip0_2046_1522)">
<path d="M71.854 4.8155V0.365927C77.5356 0.27856 77.7656 0.201702 79.644 0.251101C82.5312 0.325462 84.2725 1.16708 85.5246 2.46078C86.7315 3.7077 87.6886 5.60929 87.6442 8.36932C87.618 9.95849 86.6561 15.8046 79.6909 16.1695C78.8741 16.2438 76.9989 16.1783 75.8078 16.2066L76.9853 11.6415C79.7448 11.8761 81.9342 10.9876 82.0507 8.32228C82.1783 5.33011 79.5791 4.3801 76.9861 4.8486L71.854 4.8155Z" fill="#878B8D"/>
<path d="M76.9829 20.5097L71.854 20.5089V3.86719L76.9829 3.90108V20.5097Z" fill="#878B8D"/>
<path d="M95.4184 7.4606L99.6281 8.99065C102.431 10.1195 103.026 12.4101 102.999 14.3829C102.937 18.9586 99.3593 20.674 96.5071 20.9216C93.264 21.2025 90.7535 20.6482 89.9097 20.5083V15.5288C92.4766 16.3243 95.4636 16.2926 96.4722 15.8914C97.2352 15.5879 97.8148 15.1242 97.7687 14.5157C97.7434 14.1855 97.7109 13.7656 96.7466 13.345L92.8644 11.9079C90.3714 10.992 89.4095 8.57667 89.5134 6.4252C89.7244 2.07837 93.1277 -0.121716 96.5255 0.00546006C97.5738 0.0442171 98.9861 0.0191236 101.04 0.308947V5.24226C98.7387 4.69611 97.6596 4.70504 96.4723 4.85561C95.1443 5.02298 94.5479 5.72376 94.5757 6.47236C94.5891 6.85179 94.9603 7.26774 95.4187 7.4539" fill="#878B8D"/>
<path d="M23.4229 7.87262H28.9459L28.9444 0.384766H34.074V20.5132H28.9459V12.4323H23.4229L23.4222 20.5132H18.2871V0.384766H23.4222L23.4229 7.87262Z" fill="#878B8D"/>
<path d="M44.038 0.384766H38.9053V20.5132H44.038V0.384766Z" fill="#878B8D"/>
<path d="M66.9735 0.384766H61.8398V20.5132H66.9735V0.384766Z" fill="#878B8D"/>
<path d="M54.0026 15.9431H59.2949V20.5116L48.8682 20.5132V0.384766H54.0026V15.9431Z" fill="#878B8D"/>
<path d="M0 4.8155V0.365927C5.68225 0.27856 5.91156 0.201702 7.79079 0.251101C10.6771 0.325462 12.4185 1.16708 13.6713 2.46078C14.8773 3.7077 15.8353 5.60929 15.7909 8.36932C15.7639 9.95849 14.802 15.8046 7.83675 16.1695C7.02087 16.2438 5.20407 16.1783 4.01314 16.2066L5.13429 11.6415C7.89456 11.8761 10.0824 10.9876 10.1965 8.32228C10.3241 5.33011 7.7241 4.3801 5.13198 4.8486L0 4.8155Z" fill="#878B8D"/>
<path d="M5.13674 20.5098L0 20.509V4.21265L5.13198 4.24589L5.13674 20.5098Z" fill="#878B8D"/>
</g>
<defs>
<clipPath id="clip0_2046_1522">
<rect width="103" height="21" fill="white"/>
</clipPath>
</defs>
</svg>
