<svg width="170" height="53" viewBox="0 0 170 53" fill="none" xmlns="http://www.w3.org/2000/svg">
<g clip-path="url(#clip0_4003_5927)">
<path d="M16.2538 50.3361C16.2538 51.4235 15.3825 52.3076 14.304 52.3076H14.2491C13.1737 52.3076 12.2993 51.4266 12.2993 50.3361V4.08166C12.2993 2.99422 13.1706 2.11011 14.2491 2.11011H14.304C15.3794 2.11011 16.2538 2.99114 16.2538 4.08166V50.3361Z" fill="url(#paint0_linear_4003_5927)"/>
<path d="M22.4047 10.8003C22.4047 11.8878 21.5333 12.7719 20.4549 12.7719H20.4C19.3246 12.7719 18.4502 11.8909 18.4502 10.8003V4.96886C18.4502 3.88143 19.3215 2.99731 20.4 2.99731H20.4549C21.5303 2.99731 22.4047 3.87835 22.4047 4.96886V10.8003Z" fill="url(#paint1_linear_4003_5927)"/>
<path d="M34.7069 45.0036C34.7069 46.091 33.8356 46.9752 32.7571 46.9752H32.7023C31.6268 46.9752 30.7524 46.0941 30.7524 45.0036V37.3946C30.7524 36.3072 31.6238 35.4231 32.7023 35.4231H32.7571C33.8325 35.4231 34.7069 36.3041 34.7069 37.3946V45.0036Z" fill="url(#paint2_linear_4003_5927)"/>
<path d="M28.5556 47.2248C28.5556 48.3122 27.6842 49.1963 26.6057 49.1963H26.5509C25.4754 49.1963 24.6011 48.3153 24.6011 47.2248V40.9497C24.6011 39.8623 25.4724 38.9781 26.5509 38.9781H26.6057C27.6812 38.9781 28.5556 39.8592 28.5556 40.9497V47.2248Z" fill="url(#paint3_linear_4003_5927)"/>
<path d="M28.5556 35.2322C28.5556 36.3197 27.6842 37.2038 26.6057 37.2038H26.5509C25.4754 37.2038 24.6011 36.3227 24.6011 35.2322V31.1782C24.6011 30.0908 25.4724 29.2067 26.5509 29.2067H26.6057C27.6812 29.2067 28.5556 30.0877 28.5556 31.1782V35.2322Z" fill="url(#paint4_linear_4003_5927)"/>
<path d="M22.4047 42.7826C22.4047 43.8701 21.5333 44.7542 20.4549 44.7542H20.4C19.3246 44.7542 18.4502 43.8731 18.4502 42.7826V38.7286C18.4502 37.6412 19.3215 36.7571 20.4 36.7571H20.4549C21.5303 36.7571 22.4047 37.6381 22.4047 38.7286V42.7826Z" fill="url(#paint5_linear_4003_5927)"/>
<path d="M3.95448 25.9042C3.95448 26.9916 3.08315 27.8758 2.00466 27.8758H1.94982C0.874373 27.8758 0 26.9947 0 25.9042V22.2938C0 21.2064 0.871326 20.3223 1.94982 20.3223H2.00466C3.08011 20.3223 3.95448 21.2033 3.95448 22.2938V25.9042Z" fill="url(#paint6_linear_4003_5927)"/>
<path d="M22.4047 33.011C22.4047 34.0985 21.5333 34.9826 20.4549 34.9826H20.4C19.3246 34.9826 18.4502 34.1016 18.4502 33.011V22.7374C18.4502 21.65 19.3215 20.7659 20.4 20.7659H20.4549C21.5303 20.7659 22.4047 21.6469 22.4047 22.7374V33.011Z" fill="url(#paint7_linear_4003_5927)"/>
<path d="M10.1054 17.9072C10.1054 18.9946 9.23403 19.8787 8.15554 19.8787H8.1007C7.02525 19.8787 6.15088 18.9977 6.15088 17.9072V3.1914C6.15088 2.10397 7.0222 1.21985 8.1007 1.21985H8.15554C9.23099 1.21985 10.1054 2.10089 10.1054 3.1914V17.9072Z" fill="url(#paint8_linear_4003_5927)"/>
<path d="M34.7069 25.4607C34.7069 26.5481 33.8356 27.4322 32.7571 27.4322H32.7023C31.6268 27.4322 30.7524 26.5512 30.7524 25.4607V6.74633C30.7524 5.6589 31.6238 4.77478 32.7023 4.77478H32.7571C33.8325 4.77478 34.7069 5.65582 34.7069 6.74633V25.4607Z" fill="url(#paint9_linear_4003_5927)"/>
<path d="M28.5556 25.4607C28.5556 26.5481 27.6842 27.4322 26.6057 27.4322H26.5509C25.4754 27.4322 24.6011 26.5512 24.6011 25.4607V5.85607C24.6011 4.76864 25.4724 3.88452 26.5509 3.88452H26.6057C27.6812 3.88452 28.5556 4.76556 28.5556 5.85607V25.4607Z" fill="url(#paint10_linear_4003_5927)"/>
<path d="M22.4047 17.0199C22.4047 18.1074 21.5333 18.9915 20.4549 18.9915H20.4C19.3246 18.9915 18.4502 18.1105 18.4502 17.0199V16.5178C18.4502 15.4304 19.3215 14.5463 20.4 14.5463H20.4549C21.5303 14.5463 22.4047 15.4273 22.4047 16.5178V17.0199Z" fill="url(#paint11_linear_4003_5927)"/>
<path d="M3.95448 10.3567C3.95448 11.4442 3.08315 12.3283 2.00466 12.3283H1.94982C0.874373 12.3283 0 11.4473 0 10.3567V2.30419C0 1.21676 0.871326 0.332642 1.94982 0.332642H2.00466C3.08011 0.332642 3.95448 1.21368 3.95448 2.30419V10.3567Z" fill="url(#paint12_linear_4003_5927)"/>
<path d="M3.95448 16.5763C3.95448 17.6638 3.08315 18.5479 2.00466 18.5479H1.94982C0.874373 18.5479 0 17.6669 0 16.5763V16.0742C0 14.9868 0.871326 14.1027 1.94982 14.1027H2.00466C3.08011 14.1027 3.95448 14.9837 3.95448 16.0742V16.5763Z" fill="url(#paint13_linear_4003_5927)"/>
<path d="M47.0057 25.9042C47.0057 26.9917 46.1344 27.8758 45.0559 27.8758H45.0011C43.9256 27.8758 43.0513 26.9948 43.0513 25.9042V8.5238C43.0513 7.43636 43.9226 6.55225 45.0011 6.55225H45.0559C46.1314 6.55225 47.0057 7.43328 47.0057 8.5238V25.9042Z" fill="url(#paint14_linear_4003_5927)"/>
<path d="M40.8578 10.8003C40.8578 11.8878 39.9865 12.7719 38.908 12.7719H38.8531C37.7777 12.7719 36.9033 11.8909 36.9033 10.8003V7.63354C36.9033 6.5461 37.7746 5.66199 38.8531 5.66199H38.908C39.9834 5.66199 40.8578 6.54302 40.8578 7.63354V10.8003Z" fill="url(#paint15_linear_4003_5927)"/>
<path d="M40.8578 17.0199C40.8578 18.1074 39.9865 18.9915 38.908 18.9915H38.8531C37.7777 18.9915 36.9033 18.1105 36.9033 17.0199V16.5178C36.9033 15.4304 37.7746 14.5463 38.8531 14.5463H38.908C39.9834 14.5463 40.8578 15.4273 40.8578 16.5178V17.0199Z" fill="url(#paint16_linear_4003_5927)"/>
<path d="M34.7069 31.6772C34.7069 32.7646 33.8356 33.6487 32.7571 33.6487H32.7023C31.6268 33.6487 30.7524 32.7677 30.7524 31.6772V31.175C30.7524 30.0876 31.6238 29.2035 32.7023 29.2035H32.7571C33.8325 29.2035 34.7069 30.0845 34.7069 31.175V31.6772Z" fill="url(#paint17_linear_4003_5927)"/>
<path d="M22.4047 49.0022C22.4047 50.0897 21.5333 50.9738 20.4549 50.9738H20.4C19.3246 50.9738 18.4502 50.0928 18.4502 49.0022V48.5001C18.4502 47.4127 19.3215 46.5286 20.4 46.5286H20.4549C21.5303 46.5286 22.4047 47.4096 22.4047 48.5001V49.0022Z" fill="url(#paint18_linear_4003_5927)"/>
<path d="M63.6221 35.6204V21.1387H58.3911V17.7224H73.2981V21.1357H68.0671V35.6204H63.6221Z" fill="#284E79"/>
<path d="M81.7249 35.9808C79.2054 35.9808 77.2739 35.3708 75.9303 34.154C74.5868 32.9372 73.9165 31.2028 73.9165 28.9479C73.9165 26.7453 74.5411 24.9863 75.7963 23.6709C77.0484 22.3586 78.8002 21.6993 81.0516 21.6993C83.0959 21.6993 84.6344 22.2569 85.6642 23.369C86.6939 24.4842 87.2088 26.0768 87.2088 28.1531V29.6687H78.0903C78.1299 30.2941 78.2609 30.8178 78.4833 31.2367C78.7057 31.6557 78.9982 31.9914 79.3638 32.241C79.7203 32.4905 80.1346 32.6692 80.6129 32.777C81.0882 32.8848 81.6061 32.9403 82.1697 32.9403C82.6541 32.9403 83.1294 32.8848 83.5955 32.777C84.0617 32.6692 84.4912 32.5275 84.8812 32.3488C85.2224 32.1978 85.5362 32.0315 85.8256 31.8559C86.1151 31.6803 86.3497 31.5232 86.5325 31.3877H86.9712V34.8625C86.6299 34.9981 86.3192 35.1244 86.0389 35.2414C85.7586 35.3585 85.3717 35.4755 84.8812 35.5957C84.4303 35.7158 83.9642 35.8113 83.4828 35.8791C83.0014 35.9469 82.4165 35.9808 81.7249 35.9808ZM83.105 27.1365C83.0807 26.2462 82.8765 25.5716 82.4927 25.1064C82.1088 24.6413 81.5208 24.4102 80.7287 24.4102C79.9213 24.4102 79.2877 24.6536 78.8337 25.1434C78.3798 25.6332 78.1269 26.2955 78.0782 27.1396H83.105V27.1365Z" fill="#284E79"/>
<path d="M102.707 35.6203H97.7625L94.1492 29.7427L93.5064 30.6206V35.6203H89.3447V16.9183H93.5064V27.4014L97.4517 22.1245H102.363L97.6893 27.9405L102.707 35.6203Z" fill="#284E79"/>
<path d="M116.828 28.8802C116.828 31.1012 116.228 32.8479 115.027 34.1263C113.827 35.4048 112.13 36.0424 109.934 36.0424C107.755 36.0424 106.061 35.4048 104.852 34.1263C103.642 32.8479 103.039 31.1012 103.039 28.8802C103.039 26.6344 103.642 24.8785 104.852 23.6093C106.061 22.3402 107.755 21.7056 109.934 21.7056C112.121 21.7056 113.818 22.3463 115.021 23.6217C116.228 24.897 116.828 26.6498 116.828 28.8802ZM112.563 28.9017C112.563 28.1008 112.496 27.4323 112.368 26.8994C112.237 26.3664 112.057 25.9382 111.828 25.6179C111.582 25.2821 111.304 25.048 110.997 24.9155C110.686 24.783 110.336 24.7153 109.94 24.7153C109.568 24.7153 109.23 24.7738 108.928 24.8909C108.627 25.0079 108.349 25.2297 108.096 25.5563C107.859 25.8705 107.67 26.2987 107.527 26.8439C107.384 27.3892 107.313 28.0731 107.313 28.8986C107.313 29.7242 107.38 30.3896 107.515 30.901C107.649 31.4093 107.825 31.8159 108.039 32.1209C108.261 32.4351 108.538 32.6631 108.87 32.8048C109.202 32.9496 109.571 33.0204 109.976 33.0204C110.308 33.0204 110.646 32.9496 110.994 32.8048C111.338 32.66 111.615 32.4444 111.819 32.1548C112.063 31.8098 112.252 31.397 112.377 30.9102C112.499 30.4297 112.563 29.7612 112.563 28.9017Z" fill="#284E79"/>
<path d="M134.992 35.6203V28.8801C134.992 28.2147 134.979 27.654 134.955 27.1981C134.931 26.7422 134.861 26.3695 134.742 26.0799C134.623 25.7903 134.437 25.5808 134.19 25.4484C133.94 25.3159 133.59 25.2512 133.139 25.2512C132.822 25.2512 132.509 25.3221 132.201 25.4607C131.893 25.6024 131.555 25.7995 131.189 26.0552V35.6234H127.006V28.8801C127.006 28.2239 126.991 27.6633 126.964 27.2043C126.936 26.7453 126.863 26.3695 126.744 26.0799C126.626 25.7903 126.443 25.5808 126.193 25.4484C125.943 25.3159 125.596 25.2512 125.151 25.2512C124.81 25.2512 124.478 25.3313 124.152 25.4915C123.826 25.6517 123.512 25.8396 123.201 26.0583V35.6265H119.04V22.1245H123.201V23.6154C123.884 23.0301 124.523 22.5742 125.127 22.2446C125.73 21.915 126.406 21.7517 127.159 21.7517C127.975 21.7517 128.691 21.9489 129.31 22.3401C129.928 22.7313 130.4 23.3166 130.723 24.096C131.521 23.3413 132.277 22.7652 132.987 22.3586C133.697 21.955 134.416 21.7517 135.144 21.7517C135.762 21.7517 136.317 21.8534 136.807 22.0536C137.298 22.2538 137.715 22.5557 138.056 22.9562C138.428 23.3875 138.708 23.9019 138.894 24.4996C139.08 25.0972 139.174 25.8766 139.174 26.8377V35.6234H134.992V35.6203Z" fill="#284E79"/>
<path d="M149.612 34.191C149.326 34.4313 149.073 34.6469 148.844 34.841C148.619 35.0351 148.317 35.226 147.937 35.417C147.565 35.6019 147.202 35.7405 146.849 35.8391C146.496 35.9346 146.002 35.9839 145.368 35.9839C144.189 35.9839 143.208 35.5834 142.425 34.7824C141.645 33.9815 141.255 32.9711 141.255 31.7543C141.255 30.7531 141.453 29.9429 141.849 29.3268C142.246 28.7107 142.815 28.2209 143.562 27.8605C144.314 27.4908 145.213 27.2351 146.261 27.0903C147.306 26.9455 148.433 26.8346 149.637 26.7545V26.6775C149.637 25.932 149.365 25.4176 148.823 25.1311C148.281 24.8477 147.464 24.706 146.38 24.706C145.889 24.706 145.313 24.7953 144.655 24.9771C143.997 25.1588 143.354 25.3868 142.73 25.6671H142.373V22.411C142.785 22.2908 143.452 22.1491 144.369 21.9828C145.289 21.8195 146.215 21.7363 147.151 21.7363C149.448 21.7363 151.123 22.1245 152.171 22.8977C153.222 23.6709 153.746 24.8508 153.746 26.4372V35.6204H149.609V34.191H149.612ZM149.612 32.0993V29.2867C148.905 29.3576 148.336 29.4223 147.9 29.4747C147.464 29.527 147.035 29.6287 146.617 29.7827C146.252 29.9121 145.968 30.1062 145.767 30.3649C145.566 30.6237 145.466 30.9718 145.466 31.4062C145.466 32.0377 145.633 32.472 145.972 32.7092C146.31 32.9464 146.806 33.0635 147.461 33.0635C147.827 33.0635 148.199 32.9803 148.579 32.8109C148.96 32.6415 149.304 32.4043 149.612 32.0993Z" fill="#284E79"/>
<path d="M170 35.6203H165.125L162.582 31.7388L159.968 35.6203H155.188L160.099 28.877L155.273 22.1213H160.147L162.643 25.932L165.15 22.1213H169.939L165.101 28.7692L170 35.6203Z" fill="#284E79"/>
</g>
<defs>
<linearGradient id="paint0_linear_4003_5927" x1="6.49583" y1="32.5512" x2="44.8032" y2="6.82667" gradientUnits="userSpaceOnUse">
<stop stop-color="#8BD1EC"/>
<stop offset="1" stop-color="#0064AA"/>
</linearGradient>
<linearGradient id="paint1_linear_4003_5927" x1="-7.81206" y1="27.2739" x2="42.2128" y2="-6.3192" gradientUnits="userSpaceOnUse">
<stop stop-color="#8BD1EC"/>
<stop offset="1" stop-color="#0064AA"/>
</linearGradient>
<linearGradient id="paint2_linear_4003_5927" x1="24.9592" y1="46.5355" x2="47.6224" y2="31.3165" gradientUnits="userSpaceOnUse">
<stop stop-color="#8BD1EC"/>
<stop offset="1" stop-color="#0064AA"/>
</linearGradient>
<linearGradient id="paint3_linear_4003_5927" x1="21.5385" y1="47.5486" x2="44.8163" y2="31.9169" gradientUnits="userSpaceOnUse">
<stop stop-color="#8BD1EC"/>
<stop offset="1" stop-color="#0064AA"/>
</linearGradient>
<linearGradient id="paint4_linear_4003_5927" x1="9.30619" y1="45.0638" x2="52.4576" y2="16.0864" gradientUnits="userSpaceOnUse">
<stop stop-color="#8BD1EC"/>
<stop offset="1" stop-color="#0064AA"/>
</linearGradient>
<linearGradient id="paint5_linear_4003_5927" x1="15.6149" y1="44.0614" x2="58.7663" y2="15.084" gradientUnits="userSpaceOnUse">
<stop stop-color="#8BD1EC"/>
<stop offset="1" stop-color="#0064AA"/>
</linearGradient>
<linearGradient id="paint6_linear_4003_5927" x1="-1.64687" y1="26.5865" x2="39.7864" y2="-1.23712" gradientUnits="userSpaceOnUse">
<stop stop-color="#8BD1EC"/>
<stop offset="1" stop-color="#0064AA"/>
</linearGradient>
<linearGradient id="paint7_linear_4003_5927" x1="12.0426" y1="33.6318" x2="40.4397" y2="14.5623" gradientUnits="userSpaceOnUse">
<stop stop-color="#8BD1EC"/>
<stop offset="1" stop-color="#0064AA"/>
</linearGradient>
<linearGradient id="paint8_linear_4003_5927" x1="-1.92616" y1="17.4524" x2="33.7316" y2="-6.49282" gradientUnits="userSpaceOnUse">
<stop stop-color="#8BD1EC"/>
<stop offset="1" stop-color="#0064AA"/>
</linearGradient>
<linearGradient id="paint9_linear_4003_5927" x1="3.83926" y1="35.9379" x2="46.0316" y2="7.60459" gradientUnits="userSpaceOnUse">
<stop stop-color="#8BD1EC"/>
<stop offset="1" stop-color="#0064AA"/>
</linearGradient>
<linearGradient id="paint10_linear_4003_5927" x1="1.089" y1="33.159" x2="44.7333" y2="3.85061" gradientUnits="userSpaceOnUse">
<stop stop-color="#8BD1EC"/>
<stop offset="1" stop-color="#0064AA"/>
</linearGradient>
<linearGradient id="paint11_linear_4003_5927" x1="1.00433" y1="30.105" x2="42.2868" y2="2.38263" gradientUnits="userSpaceOnUse">
<stop stop-color="#8BD1EC"/>
<stop offset="1" stop-color="#0064AA"/>
</linearGradient>
<linearGradient id="paint12_linear_4003_5927" x1="-12.6685" y1="16.3852" x2="45.9486" y2="-22.9779" gradientUnits="userSpaceOnUse">
<stop stop-color="#8BD1EC"/>
<stop offset="1" stop-color="#0064AA"/>
</linearGradient>
<linearGradient id="paint13_linear_4003_5927" x1="-5.16206" y1="21.2262" x2="36.1204" y2="-6.49616" gradientUnits="userSpaceOnUse">
<stop stop-color="#8BD1EC"/>
<stop offset="1" stop-color="#0064AA"/>
</linearGradient>
<linearGradient id="paint14_linear_4003_5927" x1="9.06932" y1="41.903" x2="49.0832" y2="15.0326" gradientUnits="userSpaceOnUse">
<stop stop-color="#8BD1EC"/>
<stop offset="1" stop-color="#0064AA"/>
</linearGradient>
<linearGradient id="paint15_linear_4003_5927" x1="3.96255" y1="33.1907" x2="43.677" y2="6.52125" gradientUnits="userSpaceOnUse">
<stop stop-color="#8BD1EC"/>
<stop offset="1" stop-color="#0064AA"/>
</linearGradient>
<linearGradient id="paint16_linear_4003_5927" x1="9.99323" y1="36.6017" x2="51.2757" y2="8.87931" gradientUnits="userSpaceOnUse">
<stop stop-color="#8BD1EC"/>
<stop offset="1" stop-color="#0064AA"/>
</linearGradient>
<linearGradient id="paint17_linear_4003_5927" x1="11.3421" y1="46.1121" x2="52.6251" y2="18.3894" gradientUnits="userSpaceOnUse">
<stop stop-color="#8BD1EC"/>
<stop offset="1" stop-color="#0064AA"/>
</linearGradient>
<linearGradient id="paint18_linear_4003_5927" x1="19.3517" y1="49.4917" x2="60.6341" y2="21.7693" gradientUnits="userSpaceOnUse">
<stop stop-color="#8BD1EC"/>
<stop offset="1" stop-color="#0064AA"/>
</linearGradient>
<clipPath id="clip0_4003_5927">
<rect width="170" height="52.3077" fill="white"/>
</clipPath>
</defs>
</svg>
