<svg width="110" height="110" viewBox="0 0 110 110" fill="none" xmlns="http://www.w3.org/2000/svg">
<mask id="mask0_2054_1964" style="mask-type:alpha" maskUnits="userSpaceOnUse" x="0" y="0" width="110" height="110">
<rect width="110" height="110" rx="55" fill="#6EBADE"/>
</mask>
<g mask="url(#mask0_2054_1964)">
<rect width="110" height="110" rx="55" fill="white"/>
</g>
<path d="M83.716 67.4264H25.5908C25.5908 51.378 38.605 38.3638 54.6534 38.3638C70.7079 38.3638 83.716 51.3719 83.716 67.4264Z" fill="#E4ECF9"/>
<path d="M41.5292 44.5905C41.3281 44.5905 41.1331 44.4869 41.0296 44.3041C40.8711 44.0299 40.9625 43.6766 41.2428 43.5121C42.1506 42.9881 43.1011 42.5067 44.0638 42.0924C44.3562 41.9645 44.6974 42.0985 44.8254 42.391C44.9533 42.6834 44.8193 43.0246 44.5268 43.1526C43.6068 43.5486 42.699 44.0056 41.8277 44.5113C41.7241 44.5661 41.6267 44.5905 41.5292 44.5905Z" fill="#F7F7F8"/>
<path d="M34.7969 50.1228C34.6629 50.1228 34.5288 50.0741 34.4192 49.9827C34.1815 49.7694 34.1572 49.41 34.3643 49.1663C35.9667 47.3323 37.8067 45.7238 39.8295 44.3834C40.0976 44.2067 40.451 44.2798 40.6277 44.5479C40.8044 44.816 40.7313 45.1755 40.4632 45.3461C38.5257 46.6317 36.7649 48.1731 35.2295 49.9279C35.1198 50.0558 34.9614 50.1228 34.7969 50.1228Z" fill="#F7F7F8"/>
<path d="M50.9062 67.4264V39.4971C50.9062 37.4255 52.5879 35.75 54.6533 35.75C56.7249 35.75 58.4004 37.4316 58.4004 39.4971V67.4264H50.9062Z" fill="#2B79AE"/>
<path d="M86.3723 71.8434C70.5493 74.4877 39.0557 74.4938 22.9403 71.8434C21.6791 71.6363 20.625 70.8076 20.625 69.5281C20.625 68.2487 21.6608 67.2129 22.9403 67.2129H86.3723C87.6517 67.2129 88.6875 68.2487 88.6875 69.5281C88.6875 70.8076 87.6335 71.6302 86.3723 71.8434Z" fill="#2B79AE"/>
<path d="M42.108 62.8567C41.7181 62.8567 41.3647 62.5825 41.2855 62.1804L39.0616 51.189C38.9702 50.7321 39.2627 50.2873 39.7196 50.1959C40.1766 50.1045 40.6214 50.397 40.7128 50.8539L42.9366 61.8453C43.028 62.3023 42.7356 62.747 42.2786 62.8384C42.2177 62.8567 42.1629 62.8567 42.108 62.8567Z" fill="#2B79AE"/>
<path d="M67.2042 62.8567C67.1494 62.8567 67.0946 62.8506 67.0336 62.8384C66.5767 62.747 66.2842 62.3023 66.3756 61.8453L68.5995 50.8539C68.6909 50.397 69.1356 50.1045 69.5926 50.1959C70.0495 50.2873 70.342 50.7321 70.2506 51.189L68.0268 62.1804C67.9475 62.5825 67.6003 62.8567 67.2042 62.8567Z" fill="#2B79AE"/>
</svg>
