<svg width="110" height="110" viewBox="0 0 110 110" fill="none" xmlns="http://www.w3.org/2000/svg">
<mask id="mask0_2054_1965" style="mask-type:alpha" maskUnits="userSpaceOnUse" x="0" y="0" width="110" height="110">
<rect width="110" height="110" rx="55" fill="#6EBADE"/>
</mask>
<g mask="url(#mask0_2054_1965)">
<rect width="110" height="110" rx="55" fill="#6EBADE"/>
</g>
<path d="M54.6562 83.875C38.9229 83.875 26.125 71.0771 26.125 55.3438C26.125 39.6104 38.9229 26.8125 54.6562 26.8125C70.3896 26.8125 83.1875 39.6104 83.1875 55.3438C83.1875 71.0738 70.3863 83.875 54.6562 83.875ZM54.6562 29.8177C40.5832 29.8177 29.1335 41.2674 29.1335 55.3404C29.1335 69.4135 40.5832 80.8631 54.6562 80.8631C68.7293 80.8631 80.179 69.4135 80.179 55.3404C80.1756 41.2674 68.7293 29.8177 54.6562 29.8177Z" fill="white"/>
<path d="M54.6564 77.6555C42.3532 77.6555 32.3447 67.647 32.3447 55.3439C32.3447 43.0407 42.3532 33.0322 54.6564 33.0322C66.9595 33.0322 76.968 43.0407 76.968 55.3439C76.968 67.6436 66.9561 77.6555 54.6564 77.6555ZM54.6564 36.0408C44.0136 36.0408 35.3533 44.7011 35.3533 55.3439C35.3533 65.9866 44.0136 74.6469 54.6564 74.6469C65.2991 74.6469 73.9594 65.9866 73.9594 55.3439C73.9561 44.6978 65.2991 36.0408 54.6564 36.0408Z" fill="white"/>
<path d="M54.6564 70.7185C46.1787 70.7185 39.2783 63.8215 39.2783 55.3405C39.2783 46.8628 46.1754 39.9624 54.6564 39.9624C58.2859 39.9624 61.8091 41.2508 64.5786 43.5919C68.0453 46.5241 70.0311 50.8044 70.0311 55.3371C70.0311 63.8215 63.1341 70.7185 54.6564 70.7185ZM54.6564 42.9743C47.8357 42.9743 42.2902 48.5231 42.2902 55.3405C42.2902 62.1611 47.839 67.7067 54.6564 67.7067C61.477 67.7067 67.0226 62.1578 67.0226 55.3405C67.0226 51.6944 65.422 48.2508 62.636 45.8931C60.4078 44.0103 57.5752 42.9743 54.6564 42.9743Z" fill="white"/>
<path d="M54.6562 83.875C38.9229 83.875 26.125 71.0771 26.125 55.3438C26.125 39.6104 38.9229 26.8125 54.6562 26.8125C55.234 26.8125 55.8185 26.8291 56.3896 26.8656C57.2198 26.9154 57.8507 27.6294 57.8009 28.4596C57.7511 29.2897 57.0405 29.9207 56.2103 29.8708C55.6956 29.841 55.1743 29.8244 54.6562 29.8244C40.5832 29.8244 29.1335 41.274 29.1335 55.3471C29.1335 69.4201 40.5832 80.8698 54.6562 80.8698C63.9508 80.8698 72.5182 75.8091 77.0177 67.6635C77.4195 66.9362 78.336 66.6739 79.0632 67.0724C79.7905 67.4742 80.0561 68.3907 79.6543 69.1179C74.6235 78.2166 65.0466 83.875 54.6562 83.875Z" fill="#E4ECF9"/>
<path d="M54.6564 77.6554C42.3532 77.6554 32.3447 67.6469 32.3447 55.3438C32.3447 44.2693 40.2745 34.998 51.1995 33.2978C52.0264 33.1683 52.7901 33.7328 52.9196 34.553C53.0458 35.3732 52.4846 36.1436 51.6644 36.2698C42.2138 37.7409 35.3566 45.7603 35.3566 55.3404C35.3566 65.9832 44.0169 74.6435 54.6597 74.6435C64.3394 74.6435 72.5681 67.4144 73.8034 57.8309C73.9096 57.0074 74.6634 56.423 75.487 56.5292C76.3105 56.6355 76.8949 57.3893 76.7887 58.2128C75.3575 69.2972 65.8437 77.6554 54.6564 77.6554Z" fill="#2B79AE"/>
<path d="M54.6564 70.7185C46.1787 70.7185 39.2783 63.8215 39.2783 55.3405C39.2783 46.8628 46.1754 39.9624 54.6564 39.9624L54.9419 39.9657C55.7721 39.9823 56.4329 40.6697 56.4163 41.5032C56.3997 42.3334 55.7256 42.9909 54.8822 42.9776L54.6597 42.9743C47.839 42.9743 42.2935 48.5231 42.2935 55.3405C42.2935 62.1611 47.8423 67.7067 54.6597 67.7067C60.4011 67.7067 65.4785 63.6455 66.727 58.0534C66.9097 57.2432 67.7133 56.7285 68.5235 56.9145C69.3338 57.0971 69.8451 57.9007 69.6625 58.7109C68.1051 65.6678 61.7925 70.7185 54.6564 70.7185Z" fill="#E4ECF9"/>
</svg>
