<svg width="110" height="110" viewBox="0 0 110 110" fill="none" xmlns="http://www.w3.org/2000/svg">
<mask id="mask0_2046_1584" style="mask-type:alpha" maskUnits="userSpaceOnUse" x="0" y="0" width="110" height="110">
<rect width="110" height="110" rx="55" fill="#6EBADE"/>
</mask>
<g mask="url(#mask0_2046_1584)">
<rect width="110" height="110" rx="55" fill="#2B79AE"/>
<path d="M50.5979 47.7202C50.5979 47.7202 49.6588 45.8227 49.1816 44.5304C47.9637 41.2283 47.2832 38.2561 47.3909 34.5421C47.4049 33.9721 46.4721 33.6005 45.9303 33.856C40.3527 36.4654 37.6881 41.8788 38.6745 47.6172L50.5979 47.7202Z" fill="#4E9DD3"/>
<path d="M40.275 47.9539C38.7913 38.2209 47.5803 34.0869 47.3128 33.9504C46.9889 33.782 46.5613 33.7346 46.253 33.8744C40.4876 36.5646 37.715 42.0997 38.7074 47.9476L40.275 47.9539Z" fill="white"/>
<path d="M38.0306 53.8787L35.0542 55.0952L38.7733 61.53L41.7497 60.3135L38.0306 53.8787Z" fill="#4E9DD3"/>
<path d="M62.6162 32.1004C61.8419 31.7729 60.8364 32.1984 61.0934 32.8938C62.7573 37.4358 63.1407 41.0483 62.9868 45.0459C62.9277 46.6034 61.9846 47.9036 60.172 47.8932L36.1629 47.795C34.9295 47.7894 34.1004 48.6944 34.3514 49.7686C35.106 52.9618 37.4597 56.598 38.9826 58.7014C42.2534 63.2295 43.8222 68.5604 42.2978 73.5259L19.532 128.36C18.0545 133.173 21.5996 138.747 27.4502 140.811C33.3007 142.874 39.2412 140.646 40.7186 135.833L52.7784 77.2224C54.3027 72.2568 58.6256 69.143 63.6584 67.4045C67.6228 66.033 74.0605 62.9031 76.2391 57.8417C80.309 48.3674 73.9253 36.8814 62.6162 32.1004ZM37.3509 134.518C36.3526 137.77 32.3313 139.279 28.3779 137.885C24.4245 136.49 22.0247 132.717 23.0231 129.465C24.0215 126.212 28.0427 124.704 31.9961 126.098C35.9496 127.492 38.351 131.26 37.3509 134.518Z" fill="white"/>
<path d="M76.5355 56.2219C80.4224 47.0252 74.2288 35.8315 63.3322 31.127C62.9743 30.9745 62.5671 30.9862 62.2655 31.1181C62.1027 31.1886 68.8677 35.6186 72.4779 41.8762C76.0882 48.1338 76.5355 56.2219 76.5355 56.2219Z" fill="#4E9DD3"/>
<path d="M74.3981 43.0813C74.2197 43.017 74.0556 42.8817 73.9789 42.7137C73.6981 42.1208 73.3885 41.5294 73.0456 40.9551C72.5958 40.1961 72.0855 39.4503 71.5354 38.7429C71.3265 38.4745 71.3835 38.1439 71.6571 38.0084C71.9324 37.8677 72.3241 37.9738 72.5266 38.2399C73.1118 38.995 73.6508 39.7863 74.1293 40.5908C74.4914 41.1953 74.8249 41.8247 75.1153 42.4561C75.2526 42.7513 75.1081 43.0445 74.7897 43.1171C74.6624 43.1414 74.5255 43.1272 74.3981 43.0813Z" fill="white"/>
<path d="M75.3502 46.6289C75.1252 46.5478 74.9434 46.37 74.8885 46.1494C74.7561 45.6173 74.6028 45.0835 74.4174 44.5618C74.3159 44.2594 74.4987 43.9827 74.8249 43.9408C75.1574 43.9012 75.5079 44.1102 75.6111 44.4074C75.8062 44.968 75.9724 45.53 76.1096 46.0934C76.1823 46.3973 75.9689 46.6571 75.6299 46.6707C75.5351 46.6779 75.4402 46.6614 75.3502 46.6289Z" fill="white"/>
<path d="M49.0236 85.1022C49.5948 83.2452 48.2148 81.0767 45.956 80.2815C43.6971 79.4863 41.3831 80.3545 40.812 82.2116L40.8943 81.9439L23.001 124.967L22.9579 124.939C25.0009 122.462 28.9428 121.544 32.8294 122.912C36.7226 124.282 39.3895 127.534 39.6519 130.822L39.6303 130.82L49.1126 84.837" fill="#4E9DD3"/>
<path d="M44.1092 50.2885L55.1675 50.2637C56.014 50.2612 56.84 50.8214 57.0947 51.571L60.6549 62.0856C60.9578 62.9805 60.3249 63.7759 59.3037 63.7734L47.9672 63.7385C47.108 63.7364 46.2725 63.161 46.0352 62.4003L42.7467 51.9432C42.482 51.0621 43.1086 50.2877 44.1092 50.2885Z" fill="#4E9DD3"/>
<path d="M48.6417 62.8149C48.4471 62.7446 48.2896 62.5987 48.2307 62.4114L44.9458 52.1487C44.8559 51.8731 45.0301 51.6275 45.3345 51.5951C45.639 51.5627 45.9537 51.7594 46.0436 52.0351L49.3286 62.2977C49.4185 62.5734 49.2442 62.8189 48.9398 62.8514C48.8411 62.8691 48.739 62.85 48.6417 62.8149Z" fill="white"/>
<path d="M50.9659 62.6816C50.7713 62.6113 50.6138 62.4654 50.555 62.2781L47.27 52.0154C47.1801 51.7398 47.3543 51.4942 47.6588 51.4618C47.9632 51.4294 48.278 51.6261 48.3678 51.9018L51.6528 62.1644C51.7427 62.4401 51.5685 62.6856 51.264 62.7181C51.1588 62.7334 51.0567 62.7143 50.9659 62.6816Z" fill="white"/>
<path d="M53.2822 62.5528C53.0877 62.4826 52.9301 62.3367 52.8713 62.1493L49.5878 51.8812C49.498 51.6055 49.6722 51.3599 49.9766 51.3275C50.2811 51.2951 50.5959 51.4918 50.6857 51.7675L53.9692 62.0357C54.059 62.3114 53.8848 62.5569 53.5804 62.5893C53.4767 62.5994 53.3795 62.588 53.2822 62.5528Z" fill="white"/>
<path d="M55.6002 62.4169C55.4056 62.3466 55.2481 62.2008 55.1892 62.0134L51.9043 51.7508C51.8144 51.4751 51.9886 51.2296 52.293 51.1971C52.5974 51.1647 52.9122 51.3615 53.0021 51.6371L56.2871 61.8998C56.377 62.1754 56.2027 62.421 55.8983 62.4534C55.8012 62.4658 55.6975 62.452 55.6002 62.4169Z" fill="white"/>
<path d="M57.9244 62.2841C57.7298 62.2138 57.5723 62.0679 57.5135 61.8806L54.2285 51.618C54.1386 51.3423 54.3128 51.0968 54.6173 51.0643C54.9217 51.0319 55.2365 51.2287 55.3263 51.5043L58.6113 61.7669C58.7012 62.0426 58.527 62.2882 58.2225 62.3206C58.1189 62.3306 58.0152 62.3169 57.9244 62.2841Z" fill="white"/>
</g>
</svg>
