<svg width="110" height="110" viewBox="0 0 110 110" fill="none" xmlns="http://www.w3.org/2000/svg">
<mask id="mask0_2046_1573" style="mask-type:alpha" maskUnits="userSpaceOnUse" x="0" y="0" width="110" height="110">
<rect width="110" height="110" rx="55" fill="#6EBADE"/>
</mask>
<g mask="url(#mask0_2046_1573)">
<rect width="110" height="110" rx="55" fill="#6EBADE"/>
<path d="M95.3323 47.1252L83.4839 90.052C82.9246 92.0787 80.8279 93.2682 78.8023 92.7093C78.1652 92.5337 77.6104 92.2052 77.1672 91.7748C76.2005 90.8376 75.7627 89.4166 76.1461 88.0271L78.2914 80.2525L40.2383 69.7516L48.6726 39.1875L95.3323 47.1252Z" fill="white"/>
<path opacity="0.2" d="M80.1456 55.6411L79.8807 56.6009L46.415 47.3661L47.3712 43.9009C53.0826 45.9245 80.1456 55.6411 80.1456 55.6411Z" fill="#2B79AE"/>
<path opacity="0.2" d="M82.3546 56.6693C81.1925 56.3486 80.0137 56.4521 78.9818 56.8845L74.0137 74.8876L79.3648 76.3641L76.1462 88.0272C75.7629 89.416 75.9753 90.7751 76.609 91.6203C77.5963 91.2109 78.4909 90.1221 78.8843 88.6954L82.0806 77.1135L85.9038 63.2587L85.966 63.0334C86.7266 60.2787 85.109 57.4292 82.3546 56.6693Z" fill="#2B79AE"/>
<path d="M78.8029 92.7093L38.5282 81.5953C35.7018 80.8154 34.0429 77.8919 34.8231 75.0644L43.0105 45.3945L74.7577 54.1554L73.3814 59.1434C73.7197 57.9166 74.4722 56.9169 75.4459 56.251C75.5653 56.1685 75.6892 56.091 75.8157 56.0192C76.9674 55.3656 78.3684 55.1518 79.7461 55.5317C82.5002 56.2916 84.1181 59.1411 83.3579 61.8961L76.1469 88.0267C75.5873 90.0537 76.7762 92.15 78.8029 92.7093Z" fill="#2B79AE"/>
<path d="M72.5846 90.9932L65.1582 88.9439L73.4136 59.0287C73.7668 57.854 74.5023 56.8951 75.4459 56.252C78.0186 57.1205 79.506 59.8799 78.7752 62.5277L71.8637 87.5733C71.523 88.8082 71.8329 90.0685 72.5846 90.9932Z" fill="#2B79AE"/>
<path d="M58.4545 113.235L73.3814 59.1436C74.1417 56.3889 76.9918 54.7716 79.7465 55.5319L34.316 42.9952C31.5833 42.2411 28.7541 43.8465 27.9996 46.5802L13.0625 100.709L58.4545 113.235Z" fill="white"/>
<path d="M34.6293 55.8842C35.5841 54.9294 35.5841 53.3812 34.6293 52.4263C33.6744 51.4714 32.1262 51.4714 31.1713 52.4263C30.2165 53.3812 30.2165 54.9294 31.1713 55.8842C32.1262 56.8391 33.6744 56.8391 34.6293 55.8842Z" fill="#E4ECF9"/>
<path d="M66.0766 64.5784L37.9942 56.8288C37.3598 56.6539 36.9842 55.9918 37.1591 55.3574L37.173 55.3067C37.3479 54.6723 38.0101 54.2967 38.6444 54.4716L66.7269 62.2212C67.3613 62.3961 67.7368 63.0582 67.5619 63.6926L67.548 63.7434C67.3731 64.3774 66.711 64.7533 66.0766 64.5784Z" fill="#E4ECF9"/>
<path d="M30.6707 64.6813C32.0211 64.6813 33.1159 63.5866 33.1159 62.2362C33.1159 60.8857 32.0211 59.791 30.6707 59.791C29.3203 59.791 28.2256 60.8857 28.2256 62.2362C28.2256 63.5866 29.3203 64.6813 30.6707 64.6813Z" fill="#E4ECF9"/>
<path d="M63.8466 72.6594L35.7642 64.9099C35.1298 64.735 34.7542 64.0728 34.9292 63.4385L34.943 63.3877C35.118 62.7533 35.7801 62.3778 36.4145 62.5527L64.4969 70.3023C65.1313 70.4772 65.5068 71.1393 65.3319 71.7737L65.318 71.8244C65.1431 72.4588 64.481 72.8347 63.8466 72.6594Z" fill="#E4ECF9"/>
<path d="M28.4412 72.7624C29.7916 72.7624 30.8864 71.6676 30.8864 70.3172C30.8864 68.9668 29.7916 67.8721 28.4412 67.8721C27.0908 67.8721 25.9961 68.9668 25.9961 70.3172C25.9961 71.6676 27.0908 72.7624 28.4412 72.7624Z" fill="#E4ECF9"/>
<path d="M61.6171 80.7405L33.5347 72.9909C32.9003 72.816 32.5248 72.1539 32.6997 71.5195L32.7135 71.4688C32.8885 70.8344 33.5506 70.4588 34.185 70.6338L62.2677 78.3833C62.9021 78.5582 63.2777 79.2207 63.1028 79.8547L63.0889 79.9055C62.9136 80.5399 62.2515 80.9154 61.6171 80.7405Z" fill="#E4ECF9"/>
<path d="M27.9393 80.1269C28.8942 79.172 28.8942 77.6239 27.9393 76.669C26.9844 75.7141 25.4363 75.7141 24.4814 76.669C23.5265 77.6239 23.5265 79.172 24.4814 80.1269C25.4363 81.0818 26.9844 81.0818 27.9393 80.1269Z" fill="#E4ECF9"/>
<path d="M59.3871 88.8215L31.3047 81.072C30.6703 80.8971 30.2948 80.2349 30.4697 79.6006L30.4836 79.5498C30.6585 78.9154 31.3206 78.5399 31.955 78.7148L60.0374 86.4644C60.6718 86.6393 61.0473 87.3014 60.8724 87.9358L60.8586 87.9865C60.6836 88.6206 60.0215 88.9965 59.3871 88.8215Z" fill="#E4ECF9"/>
<path d="M25.7084 88.208C26.6632 87.2531 26.6632 85.7049 25.7084 84.75C24.7535 83.7952 23.2053 83.7952 22.2504 84.75C21.2956 85.7049 21.2956 87.2531 22.2504 88.208C23.2053 89.1628 24.7535 89.1628 25.7084 88.208Z" fill="#E4ECF9"/>
<path d="M57.1572 96.9021L29.0747 89.1526C28.4403 88.9776 28.0648 88.3155 28.2397 87.6811L28.2536 87.6304C28.4285 86.996 29.0906 86.6205 29.725 86.7954L57.8074 94.5449C58.4418 94.7199 58.8174 95.382 58.6425 96.0163L58.6286 96.0671C58.4537 96.7015 57.7915 97.0774 57.1572 96.9021Z" fill="#E4ECF9"/>
<path d="M23.4789 96.2885C24.4338 95.3337 24.4338 93.7855 23.4789 92.8306C22.524 91.8757 20.9758 91.8757 20.021 92.8306C19.0661 93.7855 19.0661 95.3337 20.021 96.2885C20.9758 97.2434 22.524 97.2434 23.4789 96.2885Z" fill="#E4ECF9"/>
<path d="M54.9272 104.984L26.8447 97.2341C26.2104 97.0592 25.8348 96.3971 26.0097 95.7627L26.0236 95.7119C26.1985 95.0776 26.8606 94.702 27.495 94.8769L55.5775 102.626C56.2118 102.801 56.5874 103.464 56.4125 104.098L56.3986 104.149C56.2237 104.783 55.5616 105.159 54.9272 104.984Z" fill="#E4ECF9"/>
<path d="M29.5123 63.6977C29.3509 63.6531 29.2061 63.5468 29.1168 63.3895L28.1417 61.6708C27.963 61.3561 28.0733 60.9566 28.388 60.7779C28.7026 60.5996 29.1022 60.7099 29.2808 61.0242L29.9328 62.1732L32.8719 60.5052C33.1866 60.3269 33.5862 60.4372 33.7648 60.7515C33.9434 61.0662 33.8331 61.4658 33.5185 61.6444L30.0096 63.6355C29.8523 63.7255 29.6737 63.7424 29.5123 63.6977Z" fill="#2B79AE"/>
<path d="M25.1841 79.3828C25.0228 79.3381 24.8779 79.2319 24.7886 79.0746L23.8135 77.3558C23.6349 77.0412 23.7452 76.6416 24.0599 76.463C24.3745 76.2847 24.7741 76.395 24.9527 76.7093L25.6047 77.8583L28.5438 76.1903C28.8585 76.012 29.258 76.1223 29.4367 76.4366C29.6153 76.7512 29.505 77.1508 29.1904 77.3294L25.6815 79.3206C25.5242 79.4102 25.3455 79.4275 25.1841 79.3828Z" fill="#2B79AE"/>
<path d="M22.8882 87.7026C22.7269 87.658 22.5821 87.5517 22.4927 87.3944L21.5176 85.6757C21.339 85.361 21.4493 84.9614 21.764 84.7828C22.0786 84.6045 22.4782 84.7148 22.6568 85.0291L23.3088 86.1781L26.2479 84.5101C26.5626 84.3318 26.9621 84.4421 27.1408 84.7564C27.3194 85.0711 27.2091 85.4706 26.8945 85.6493L23.3856 87.6404C23.2286 87.73 23.05 87.747 22.8882 87.7026Z" fill="#2B79AE"/>
<path d="M20.7242 95.5449C20.5628 95.5002 20.418 95.394 20.3287 95.2367L19.3536 93.5179C19.1749 93.2033 19.2852 92.8037 19.5999 92.6251C19.9145 92.4468 20.3141 92.5571 20.4928 92.8714L21.1447 94.0204L24.0838 92.3524C24.3985 92.1741 24.7981 92.2844 24.9767 92.5987C25.1554 92.9133 25.0451 93.3129 24.7304 93.4916L21.2215 95.4827C21.0642 95.5727 20.8856 95.5896 20.7242 95.5449Z" fill="#2B79AE"/>
</g>
</svg>
