<svg width="110" height="110" viewBox="0 0 110 110" fill="none" xmlns="http://www.w3.org/2000/svg">
<mask id="mask0_2046_1596" style="mask-type:alpha" maskUnits="userSpaceOnUse" x="0" y="0" width="110" height="110">
<rect width="110" height="110" rx="55" fill="#6EBADE"/>
</mask>
<g mask="url(#mask0_2046_1596)">
<rect width="110" height="110" rx="55" fill="#2B79AE"/>
<path d="M35.3732 75.799C33.994 74.3849 32.7917 72.7835 31.8017 71.0135L34.9165 67.3539C34.6445 66.7585 34.3987 66.145 34.1844 65.5119C34.1063 65.2947 34.0449 65.0752 33.9774 64.8552L29.3159 64.4236C28.8841 62.4189 28.7147 60.3868 28.7973 58.3726L33.2788 56.5895C33.3858 55.6765 33.5549 54.7673 33.781 53.8744L30.1352 51.2142C30.8012 49.2311 31.706 47.3134 32.8244 45.5056L37.4595 46.0848C38.0146 45.3213 38.6174 44.5852 39.2691 43.8815L37.6092 39.7038C39.1612 38.2567 40.8958 36.9667 42.7828 35.8716L46.3296 38.6573C46.9611 38.3484 47.6068 38.0684 48.2755 37.8109C48.5071 37.7224 48.7385 37.644 48.9681 37.5643L49.7388 32.9781C51.8367 32.4161 53.9387 32.1068 56.0069 32.0425L57.5221 36.2938C58.4533 36.3348 59.377 36.4331 60.2786 36.5933L63.2772 32.8408C65.2732 33.3513 67.1816 34.0979 68.9592 35.0657L68.0311 39.6335C68.7806 40.121 69.4977 40.6552 70.1717 41.2413L74.5901 39.3222C75.9692 40.7363 77.1687 42.3368 78.1615 44.1077L75.0448 47.7682C75.3162 48.365 75.5645 48.9762 75.7798 49.6089C75.854 49.8279 75.9169 50.0456 75.981 50.2683L80.6455 50.6962C81.0724 52.7033 81.2438 54.7344 81.1622 56.7482L76.683 58.5312C76.5741 59.4452 76.4057 60.3507 76.1804 61.2455L79.8268 63.9043C79.1629 65.892 78.2547 67.8101 77.136 69.6148L72.5029 69.0346C71.9479 69.8036 71.3445 70.5411 70.6946 71.2407L72.3539 75.4197C70.8011 76.865 69.0717 78.1536 67.182 79.2477L63.6311 76.4662C63.0007 76.7724 62.3518 77.0584 61.6856 77.3136C61.4577 77.4025 61.2251 77.4781 60.9971 77.556L60.2267 82.1454C58.1263 82.7074 56.0272 83.0176 53.9584 83.0834L52.4399 78.8325C51.5103 78.7873 50.589 78.689 49.6834 78.533L46.6863 82.2837C44.6923 81.7722 42.7852 81.026 41.0057 80.0592L41.9285 75.4928C41.1825 75.0026 40.4675 74.4651 39.7886 73.8813L35.3732 75.799ZM60.9599 70.9396C68.7865 67.194 72.4695 58.1454 69.172 50.7673C65.875 43.3902 56.8265 40.4333 48.9998 44.1789C41.175 47.9235 37.4911 56.9726 40.7886 64.3507C44.086 71.7287 53.1351 74.6842 60.9599 70.9396Z" fill="white"/>
<path d="M68.158 51.254C71.2195 58.1041 67.8006 66.5062 60.5318 69.9848C53.265 73.4624 44.864 70.717 41.8025 63.8668C38.7409 57.0166 42.1595 48.6136 49.4262 45.136C56.696 41.657 65.096 44.4029 68.158 51.254ZM44.6983 61.4897C46.5313 66.8838 52.6176 69.4968 58.295 67.3246C63.9738 65.155 67.0946 59.0188 65.2657 53.6283C63.4315 48.2369 57.3448 45.623 51.6678 47.7962C45.9861 49.9671 42.8654 56.101 44.6983 61.4897Z" fill="white"/>
<path d="M39.4181 86.9435C42.1716 92.7522 39.3912 100.003 33.2198 103.104C27.0479 106.208 19.786 104.005 17.0323 98.1991C14.2768 92.3913 17.0562 85.1414 23.2315 82.0377C29.4034 78.9345 36.6645 81.1348 39.4181 86.9435ZM20.7184 91.9341C20.1614 95.9492 23.0273 99.4157 27.1194 99.6755C31.2642 99.9368 35.0715 96.812 35.5578 92.7236C36.0115 88.8852 33.1847 85.4692 29.2877 85.1451C25.1377 84.7981 21.2856 87.8728 20.7184 91.9341Z" fill="white"/>
<path d="M10.8297 102.946C10.1483 101.768 9.60224 100.514 9.20017 99.191L11.9632 97.0281C11.7857 96.191 11.6747 95.3254 11.6303 94.4446L8.44186 93.4276C8.46011 92.7346 8.51814 92.0326 8.61704 91.3266C8.71287 90.6244 8.85059 89.9311 9.02369 89.2455L12.4371 88.649C12.7202 87.7857 13.0675 86.9519 13.4786 86.1524L11.3558 83.681C12.1137 82.4308 12.9962 81.2661 13.9892 80.1948L17.1362 81.3232C17.8062 80.6922 18.5238 80.1122 19.2792 79.5877L18.7918 76.3113C20.0493 75.5644 21.3806 74.9429 22.7666 74.4649L24.8022 77.006C25.6746 76.7671 26.5682 76.5995 27.4777 76.4992L28.7535 73.3133C29.4595 73.2824 30.1806 73.2823 30.8997 73.331C31.6169 73.3752 32.3218 73.4609 33.011 73.5776L33.3881 76.8722C34.2538 77.0897 35.0876 77.3683 35.8806 77.7122L38.5751 75.4649C39.807 76.1122 40.9421 76.8929 41.9716 77.7844L40.5898 80.9395C41.1918 81.5501 41.7318 82.2126 42.2188 82.9128L45.6202 82.2048C46.3023 83.3787 46.8476 84.6359 47.2475 85.9571L44.4783 88.1195C44.6624 88.958 44.7737 89.819 44.8193 90.7025L48.0054 91.7195C47.9881 92.4121 47.9332 93.1104 47.8316 93.8131C47.7335 94.5209 47.598 95.2165 47.4262 95.897L44.0102 96.4981C43.7277 97.3578 43.3756 98.1939 42.968 98.9906L45.0885 101.468C44.3318 102.715 43.4528 103.882 42.4614 104.944L39.3111 103.822C38.6405 104.456 37.9285 105.03 37.165 105.555L37.655 108.829C36.3982 109.573 35.0664 110.201 33.6781 110.685L31.6507 108.135C30.7763 108.375 29.8807 108.543 28.9707 108.645L27.6875 111.836C26.9823 111.868 26.2664 111.862 25.5481 111.815C24.8282 111.77 24.1285 111.682 23.4358 111.563L23.0606 108.273C22.1944 108.057 21.3604 107.775 20.5691 107.433L17.8722 109.68C16.6406 109.03 15.5016 108.251 14.4793 107.358L15.8599 104.2C15.2619 103.593 14.7139 102.936 14.2286 102.232L10.8297 102.946ZM33.4367 103.561C39.8748 100.325 42.7757 92.761 39.9015 86.7009C37.03 80.6416 29.4543 78.344 23.0136 81.5825C16.5746 84.8192 13.6756 92.3819 16.5469 98.4435C19.4217 104.502 26.996 106.799 33.4367 103.561Z" fill="white"/>
<path d="M69.1724 50.7685C72.4699 58.1466 68.7869 67.1952 60.9603 70.9407C53.1355 74.6854 44.0865 71.7298 40.789 64.3518C37.492 56.9747 41.1755 47.9247 49.0002 44.1801C56.8269 40.4345 65.875 43.3905 69.1724 50.7685ZM41.8034 63.8663C44.865 70.7165 53.266 73.462 60.5328 69.9843C67.8016 66.5058 71.2205 58.1037 68.159 51.2535C65.0974 44.4033 56.696 41.657 49.4272 45.1355C42.1604 48.6132 38.7415 57.0152 41.8034 63.8663Z" fill="#E4ECF9"/>
<path d="M39.901 86.7014C42.7752 92.7616 39.8743 100.325 33.4362 103.561C26.9956 106.8 19.4203 104.503 16.5465 98.444C13.6752 92.3824 16.5741 84.8197 23.0132 81.5831C29.4538 78.3445 37.0301 80.6407 39.901 86.7014ZM17.0326 98.1991C19.7853 104.006 27.0486 106.209 33.2202 103.104C39.3915 100.003 42.1719 92.7522 39.4184 86.9435C36.6648 81.1348 29.4037 78.9345 23.2318 82.0377C17.0569 85.1424 14.2771 92.3913 17.0326 98.1991Z" fill="#E4ECF9"/>
</g>
</svg>
