<svg width="110" height="110" viewBox="0 0 110 110" fill="none" xmlns="http://www.w3.org/2000/svg">
<mask id="mask0_2046_1580" style="mask-type:alpha" maskUnits="userSpaceOnUse" x="0" y="0" width="110" height="110">
<rect width="110" height="110" rx="55" fill="#6EBADE"/>
</mask>
<g mask="url(#mask0_2046_1580)">
<rect width="110" height="110" rx="55" fill="white"/>
<path d="M39.0675 66.5156L54.7534 25.2808C55.0436 24.5178 55.9724 24.1643 56.8186 24.4948C57.6648 24.8252 58.122 25.7114 57.829 26.4817L42.1432 67.7165C41.853 68.4795 40.9241 68.833 40.0779 68.5026C39.2236 68.169 38.7745 67.2859 39.0675 66.5156Z" fill="#EEEEEE"/>
<path d="M81.338 104.246C86.2536 90.5948 78.1854 74.5552 63.3191 68.4242C63.1352 68.3484 62.9564 68.2827 62.77 68.2139C62.6806 68.1689 62.5988 68.1271 62.5068 68.0892L40.2688 58.918C38.1462 58.0426 35.8391 58.9256 35.1398 60.8677L27.7867 81.2876C27.769 81.3369 27.7589 81.3893 27.7437 81.4315C27.6626 81.6324 27.5814 81.8333 27.5079 82.0374C22.5924 95.6882 30.6606 111.728 45.5268 117.859C60.3828 123.994 76.4224 117.896 81.338 104.246Z" fill="#2B79AE"/>
<path d="M80.2999 104.745L27.6704 82.3764C27.6528 82.4246 27.6428 82.476 27.6278 82.5174C27.5477 82.7142 27.4675 82.9111 27.3949 83.111C22.5378 96.4859 30.4446 112.173 45.0533 118.144C59.6595 124.123 75.4428 118.12 80.2999 104.745Z" fill="#4E9DD3"/>
<path d="M59.6891 118.698C59.8806 118.167 60.3396 117.754 60.9612 117.628C66.2271 116.544 70.7671 113.931 74.0858 110.083C74.7419 109.32 75.9805 109.277 76.8484 109.993C77.7188 110.702 77.8913 111.896 77.2275 112.656C73.4193 117.075 68.2018 120.067 62.1601 121.312C61.1249 121.528 60.0131 120.874 59.6791 119.858C59.5496 119.455 59.5615 119.053 59.6891 118.698Z" fill="#E4E4E4"/>
<path d="M47.73 60.7486C48.0663 59.8449 49.1487 59.4323 50.1433 59.8289L64.2744 65.4641C64.3783 65.5056 64.4723 65.5508 64.5663 65.596L64.6776 65.6404C64.8063 65.684 64.9325 65.7343 65.0661 65.7875C66.0606 66.1841 66.5961 67.2419 66.2598 68.1457C65.9236 69.0494 64.8411 69.462 63.8466 69.0654C63.7575 69.0299 63.6684 68.9944 63.5843 68.9685L63.3517 68.8835C63.2998 68.8628 63.2478 68.8421 63.1909 68.8117L63.1538 68.7969C63.1241 68.785 63.0895 68.7635 63.0599 68.7517L48.9213 63.1135C47.9293 62.7102 47.3938 61.6524 47.73 60.7486Z" fill="#E4E4E4"/>
<path d="M55.1477 63.6205L57.125 58.2488C57.4773 57.2827 58.6211 56.8543 59.6783 57.2849C60.7354 57.7155 61.3008 58.8483 60.9485 59.8144C60.9485 59.8144 60.9485 59.8144 60.9459 59.8216L58.9713 65.1861C58.6189 66.1522 57.4751 66.5806 56.418 66.15C55.3635 65.7122 54.7954 64.5866 55.1477 63.6205Z" fill="#E4E4E4"/>
<path d="M50.851 22.9256C51.0013 22.5195 51.4786 22.3377 51.9248 22.5166L56.9604 24.5354C57.4066 24.7143 57.6434 25.1823 57.4931 25.5885C57.3428 25.9946 56.8655 26.1764 56.4192 25.9975L51.3837 23.9788C50.9399 23.7931 50.7032 23.325 50.851 22.9256Z" fill="#EEEEEE"/>
<path d="M38.1541 89.9802L40.4897 83.535C41.3818 81.0731 44.3075 79.9605 46.9945 81.0613L66.619 89.1009C69.306 90.2017 70.7732 93.114 69.8811 95.5759L67.5454 102.021C66.6533 104.483 63.7276 105.596 61.0406 104.495L41.4161 96.4551C38.7291 95.3543 37.2619 92.4421 38.1541 89.9802Z" fill="white"/>
<path d="M38.152 90.4141L39.3183 87.2491L68.3418 98.936L67.1755 102.101C66.2844 104.519 63.3871 105.622 60.7337 104.554L41.355 96.7502C38.7016 95.6818 37.261 92.832 38.152 90.4141Z" fill="#E4E4E4"/>
<path d="M40.2214 61.5649C40.0745 61.973 40.3156 62.4523 40.76 62.6356C41.2043 62.8188 41.6837 62.6366 41.8306 62.2286C41.9776 61.8205 41.7364 61.3412 41.2921 61.1579C40.8477 60.9746 40.3683 61.1569 40.2214 61.5649Z" fill="#EEEEEE"/>
<path d="M58.2453 94.3886C58.0984 94.7967 58.3395 95.276 58.7839 95.4593C59.2283 95.6426 59.7076 95.4604 59.8546 95.0523C60.0015 94.6443 59.7604 94.1649 59.316 93.9816C58.8716 93.7984 58.3923 93.9806 58.2453 94.3886Z" fill="#2B79AE"/>
<path d="M72.0481 75.456C72.0862 75.351 72.1546 75.2584 72.2432 75.1821C72.5419 74.9346 73.0274 74.9888 73.3153 75.2997C74.8431 76.9467 76.1912 78.7532 77.3216 80.6556C77.5386 81.0179 77.4167 81.4504 77.0573 81.6248C76.698 81.7992 76.2329 81.6408 76.0159 81.2786C74.946 79.4734 73.6686 77.7601 72.2216 76.2025C72.0145 75.9809 71.9618 75.694 72.0481 75.456Z" fill="#F7F7F8"/>
<path d="M76.6954 82.6211C76.7568 82.4514 76.8896 82.3029 77.0811 82.2353C77.4589 82.0898 77.918 82.2782 78.1064 82.6561C78.2694 82.9828 78.4298 83.3167 78.58 83.6545C78.7811 84.0944 78.9694 84.5453 79.1476 85.0001C79.3054 85.3897 79.1059 85.7951 78.7128 85.91C78.3197 86.0248 77.8759 85.7939 77.7181 85.4043C77.5476 84.977 77.3669 84.5536 77.176 84.1341C77.036 83.8167 76.8858 83.5033 76.7279 83.1868C76.6388 82.9959 76.6314 82.7979 76.6954 82.6211Z" fill="#F7F7F8"/>
</g>
</svg>
