<svg width="35" height="35" viewBox="0 0 35 35" fill="none" xmlns="http://www.w3.org/2000/svg">
<circle cx="17.5" cy="17.5" r="17.5" fill="#6EBADE"/>
<path fill-rule="evenodd" clip-rule="evenodd" d="M24.2317 10.7612C22.4456 8.98154 20.0703 8.00104 17.5397 8C12.3253 8 8.08145 12.2234 8.07935 17.4143C8.07865 19.0737 8.51422 20.6935 9.34213 22.1213L8 27L13.0151 25.6907C14.397 26.4409 15.9527 26.8363 17.5359 26.8367H17.5399C22.7537 26.8367 26.998 22.613 27 17.4218C27.001 14.9061 26.0179 12.5407 24.2317 10.7612ZM17.5397 25.2467H17.5365C16.1256 25.2461 14.7419 24.8688 13.5344 24.1559L13.2474 23.9863L10.2714 24.7632L11.0658 21.8755L10.8787 21.5795C10.0916 20.3335 9.67597 18.8935 9.67667 17.4149C9.6783 13.1003 13.2057 9.59014 17.5429 9.59014C19.6431 9.59083 21.6174 10.4058 23.1019 11.885C24.5864 13.3642 25.4035 15.3303 25.4028 17.4213C25.4009 21.7362 21.8737 25.2467 17.5397 25.2467ZM21.8528 19.3859C21.6165 19.268 20.4542 18.6991 20.2375 18.6205C20.021 18.542 19.8632 18.5029 19.7058 18.7383C19.5481 18.9737 19.0952 19.5037 18.9573 19.6606C18.8193 19.8176 18.6816 19.8373 18.4451 19.7195C18.2087 19.6018 17.4471 19.3533 16.5442 18.5518C15.8415 17.928 15.3671 17.1577 15.2292 16.9223C15.0914 16.6866 15.228 16.5716 15.3329 16.4422C15.5888 16.1259 15.845 15.7944 15.9238 15.6375C16.0027 15.4804 15.9632 15.343 15.904 15.2253C15.845 15.1076 15.3723 13.9497 15.1753 13.4785C14.9833 13.02 14.7886 13.0819 14.6434 13.0747C14.5057 13.0679 14.348 13.0665 14.1904 13.0665C14.0328 13.0665 13.7767 13.1253 13.56 13.3609C13.3433 13.5964 12.7328 14.1655 12.7328 15.3234C12.7328 16.4813 13.5798 17.6 13.6979 17.757C13.8161 17.914 15.3648 20.2902 17.736 21.309C18.2999 21.5516 18.7402 21.6963 19.0836 21.8047C19.6499 21.9837 20.165 21.9585 20.5724 21.8979C21.0266 21.8303 21.9708 21.3288 22.168 20.7793C22.3649 20.2297 22.3649 19.7588 22.3057 19.6606C22.2467 19.5625 22.0891 19.5037 21.8528 19.3859Z" fill="white"/>
</svg>
